<mxfile host="app.diagrams.net" modified="2023-03-28T05:22:11.717Z" agent="Mozilla/5.0 (Windows NT 10.0; Win64; x64) AppleWebKit/537.36 (KHTML, like Gecko) Chrome/110.0.0.0 Safari/537.36 OPR/96.0.0.0" etag="JPlfOEf_Fn-kZh8Ovz20" version="21.1.1">
  <diagram name="Page-1" id="929967ad-93f9-6ef4-fab6-5d389245f69c">
    <mxGraphModel dx="2143" dy="1178" grid="1" gridSize="10" guides="1" tooltips="1" connect="1" arrows="1" fold="1" page="1" pageScale="1.5" pageWidth="1169" pageHeight="826" background="none" math="0" shadow="0">
      <root>
        <mxCell id="0" style=";html=1;" />
        <mxCell id="1" style=";html=1;" parent="0" />
        <mxCell id="1672d66443f91eb5-23" value="Gestor de gastos" style="text;strokeColor=none;fillColor=none;html=1;fontSize=24;fontStyle=1;verticalAlign=middle;align=center;" parent="1" vertex="1">
          <mxGeometry x="120" y="40" width="1510" height="40" as="geometry" />
        </mxCell>
        <mxCell id="ff9kux6z4qjQHwl3imrx-5" value="Usuario" style="swimlane;fontStyle=1;align=center;verticalAlign=top;childLayout=stackLayout;horizontal=1;startSize=26;horizontalStack=0;resizeParent=1;resizeParentMax=0;resizeLast=0;collapsible=1;marginBottom=0;whiteSpace=wrap;html=1;" vertex="1" parent="1">
          <mxGeometry x="780" y="180" width="160" height="260" as="geometry" />
        </mxCell>
        <mxCell id="ff9kux6z4qjQHwl3imrx-6" value="Nombre: str" style="text;strokeColor=none;fillColor=none;align=left;verticalAlign=top;spacingLeft=4;spacingRight=4;overflow=hidden;rotatable=0;points=[[0,0.5],[1,0.5]];portConstraint=eastwest;whiteSpace=wrap;html=1;" vertex="1" parent="ff9kux6z4qjQHwl3imrx-5">
          <mxGeometry y="26" width="160" height="26" as="geometry" />
        </mxCell>
        <mxCell id="ff9kux6z4qjQHwl3imrx-7" value="Edad:int&lt;br&gt;&lt;br&gt;Correo:Str&lt;br&gt;&lt;br&gt;Perfil:Perfil&lt;br&gt;&lt;br&gt;Divisa:Divisa" style="text;strokeColor=none;fillColor=none;align=left;verticalAlign=top;spacingLeft=4;spacingRight=4;overflow=hidden;rotatable=0;points=[[0,0.5],[1,0.5]];portConstraint=eastwest;whiteSpace=wrap;html=1;" vertex="1" parent="ff9kux6z4qjQHwl3imrx-5">
          <mxGeometry y="52" width="160" height="118" as="geometry" />
        </mxCell>
        <mxCell id="ff9kux6z4qjQHwl3imrx-8" value="" style="line;strokeWidth=1;fillColor=none;align=left;verticalAlign=middle;spacingTop=-1;spacingLeft=3;spacingRight=3;rotatable=0;labelPosition=right;points=[];portConstraint=eastwest;strokeColor=inherit;" vertex="1" parent="ff9kux6z4qjQHwl3imrx-5">
          <mxGeometry y="170" width="160" height="8" as="geometry" />
        </mxCell>
        <mxCell id="ff9kux6z4qjQHwl3imrx-9" value="+ __init__(nombre, edad,correo,perfil,divisa)" style="text;strokeColor=none;fillColor=none;align=left;verticalAlign=top;spacingLeft=4;spacingRight=4;overflow=hidden;rotatable=0;points=[[0,0.5],[1,0.5]];portConstraint=eastwest;whiteSpace=wrap;html=1;" vertex="1" parent="ff9kux6z4qjQHwl3imrx-5">
          <mxGeometry y="178" width="160" height="42" as="geometry" />
        </mxCell>
        <mxCell id="ff9kux6z4qjQHwl3imrx-10" value="+&amp;nbsp; registrar_usuario(cls)" style="text;strokeColor=none;fillColor=none;align=left;verticalAlign=top;spacingLeft=4;spacingRight=4;overflow=hidden;rotatable=0;points=[[0,0.5],[1,0.5]];portConstraint=eastwest;whiteSpace=wrap;html=1;" vertex="1" parent="ff9kux6z4qjQHwl3imrx-5">
          <mxGeometry y="220" width="160" height="40" as="geometry" />
        </mxCell>
        <mxCell id="ff9kux6z4qjQHwl3imrx-17" value="Perfil" style="swimlane;fontStyle=1;align=center;verticalAlign=top;childLayout=stackLayout;horizontal=1;startSize=26;horizontalStack=0;resizeParent=1;resizeParentMax=0;resizeLast=0;collapsible=1;marginBottom=0;whiteSpace=wrap;html=1;" vertex="1" parent="1">
          <mxGeometry x="1030" y="200" width="160" height="178" as="geometry" />
        </mxCell>
        <mxCell id="ff9kux6z4qjQHwl3imrx-18" value="Jubilado: Perfil" style="text;strokeColor=none;fillColor=none;align=left;verticalAlign=top;spacingLeft=4;spacingRight=4;overflow=hidden;rotatable=0;points=[[0,0.5],[1,0.5]];portConstraint=eastwest;whiteSpace=wrap;html=1;" vertex="1" parent="ff9kux6z4qjQHwl3imrx-17">
          <mxGeometry y="26" width="160" height="26" as="geometry" />
        </mxCell>
        <mxCell id="ff9kux6z4qjQHwl3imrx-19" value="Estudiante :Perfil&lt;br&gt;&lt;br&gt;Trabajador : Perfil" style="text;strokeColor=none;fillColor=none;align=left;verticalAlign=top;spacingLeft=4;spacingRight=4;overflow=hidden;rotatable=0;points=[[0,0.5],[1,0.5]];portConstraint=eastwest;whiteSpace=wrap;html=1;" vertex="1" parent="ff9kux6z4qjQHwl3imrx-17">
          <mxGeometry y="52" width="160" height="118" as="geometry" />
        </mxCell>
        <mxCell id="ff9kux6z4qjQHwl3imrx-20" value="" style="line;strokeWidth=1;fillColor=none;align=left;verticalAlign=middle;spacingTop=-1;spacingLeft=3;spacingRight=3;rotatable=0;labelPosition=right;points=[];portConstraint=eastwest;strokeColor=inherit;" vertex="1" parent="ff9kux6z4qjQHwl3imrx-17">
          <mxGeometry y="170" width="160" height="8" as="geometry" />
        </mxCell>
        <mxCell id="ff9kux6z4qjQHwl3imrx-25" value="" style="endArrow=classic;startArrow=classic;html=1;rounded=0;entryX=-0.012;entryY=0.26;entryDx=0;entryDy=0;entryPerimeter=0;" edge="1" parent="1" target="ff9kux6z4qjQHwl3imrx-19">
          <mxGeometry width="50" height="50" relative="1" as="geometry">
            <mxPoint x="940" y="282" as="sourcePoint" />
            <mxPoint x="990" y="232" as="targetPoint" />
            <Array as="points" />
          </mxGeometry>
        </mxCell>
        <mxCell id="ff9kux6z4qjQHwl3imrx-26" value="Ingresos" style="swimlane;fontStyle=1;align=center;verticalAlign=top;childLayout=stackLayout;horizontal=1;startSize=26;horizontalStack=0;resizeParent=1;resizeParentMax=0;resizeLast=0;collapsible=1;marginBottom=0;whiteSpace=wrap;html=1;" vertex="1" parent="1">
          <mxGeometry x="570" y="490" width="180" height="190" as="geometry" />
        </mxCell>
        <mxCell id="ff9kux6z4qjQHwl3imrx-27" value="dia:str" style="text;strokeColor=none;fillColor=none;align=left;verticalAlign=top;spacingLeft=4;spacingRight=4;overflow=hidden;rotatable=0;points=[[0,0.5],[1,0.5]];portConstraint=eastwest;whiteSpace=wrap;html=1;" vertex="1" parent="ff9kux6z4qjQHwl3imrx-26">
          <mxGeometry y="26" width="180" height="26" as="geometry" />
        </mxCell>
        <mxCell id="ff9kux6z4qjQHwl3imrx-28" value="mes:str&lt;br&gt;&lt;br&gt;a単o:Str&lt;br&gt;l&lt;br&gt;monto:float" style="text;strokeColor=none;fillColor=none;align=left;verticalAlign=top;spacingLeft=4;spacingRight=4;overflow=hidden;rotatable=0;points=[[0,0.5],[1,0.5]];portConstraint=eastwest;whiteSpace=wrap;html=1;" vertex="1" parent="ff9kux6z4qjQHwl3imrx-26">
          <mxGeometry y="52" width="180" height="88" as="geometry" />
        </mxCell>
        <mxCell id="ff9kux6z4qjQHwl3imrx-29" value="" style="line;strokeWidth=1;fillColor=none;align=left;verticalAlign=middle;spacingTop=-1;spacingLeft=3;spacingRight=3;rotatable=0;labelPosition=right;points=[];portConstraint=eastwest;strokeColor=inherit;" vertex="1" parent="ff9kux6z4qjQHwl3imrx-26">
          <mxGeometry y="140" width="180" height="8" as="geometry" />
        </mxCell>
        <mxCell id="ff9kux6z4qjQHwl3imrx-30" value="ingresos(monto,dia,mes,a単o)&lt;br&gt;balance(ingresos)" style="text;strokeColor=none;fillColor=none;align=left;verticalAlign=top;spacingLeft=4;spacingRight=4;overflow=hidden;rotatable=0;points=[[0,0.5],[1,0.5]];portConstraint=eastwest;whiteSpace=wrap;html=1;" vertex="1" parent="ff9kux6z4qjQHwl3imrx-26">
          <mxGeometry y="148" width="180" height="42" as="geometry" />
        </mxCell>
        <mxCell id="ff9kux6z4qjQHwl3imrx-33" style="edgeStyle=orthogonalEdgeStyle;rounded=0;orthogonalLoop=1;jettySize=auto;html=1;" edge="1" parent="1" source="ff9kux6z4qjQHwl3imrx-7" target="ff9kux6z4qjQHwl3imrx-26">
          <mxGeometry relative="1" as="geometry">
            <mxPoint x="659.9999999999998" y="290.9999999999999" as="targetPoint" />
            <Array as="points">
              <mxPoint x="660" y="291" />
            </Array>
          </mxGeometry>
        </mxCell>
        <mxCell id="ff9kux6z4qjQHwl3imrx-35" value="Egresos" style="swimlane;fontStyle=1;align=center;verticalAlign=top;childLayout=stackLayout;horizontal=1;startSize=26;horizontalStack=0;resizeParent=1;resizeParentMax=0;resizeLast=0;collapsible=1;marginBottom=0;whiteSpace=wrap;html=1;" vertex="1" parent="1">
          <mxGeometry x="820" y="530" width="180" height="200" as="geometry" />
        </mxCell>
        <mxCell id="ff9kux6z4qjQHwl3imrx-36" value="dia:str" style="text;strokeColor=none;fillColor=none;align=left;verticalAlign=top;spacingLeft=4;spacingRight=4;overflow=hidden;rotatable=0;points=[[0,0.5],[1,0.5]];portConstraint=eastwest;whiteSpace=wrap;html=1;" vertex="1" parent="ff9kux6z4qjQHwl3imrx-35">
          <mxGeometry y="26" width="180" height="26" as="geometry" />
        </mxCell>
        <mxCell id="ff9kux6z4qjQHwl3imrx-37" value="mes:str&lt;br&gt;&lt;br&gt;a単o:Str&lt;br&gt;&lt;br&gt;monto:float" style="text;strokeColor=none;fillColor=none;align=left;verticalAlign=top;spacingLeft=4;spacingRight=4;overflow=hidden;rotatable=0;points=[[0,0.5],[1,0.5]];portConstraint=eastwest;whiteSpace=wrap;html=1;" vertex="1" parent="ff9kux6z4qjQHwl3imrx-35">
          <mxGeometry y="52" width="180" height="98" as="geometry" />
        </mxCell>
        <mxCell id="ff9kux6z4qjQHwl3imrx-38" value="" style="line;strokeWidth=1;fillColor=none;align=left;verticalAlign=middle;spacingTop=-1;spacingLeft=3;spacingRight=3;rotatable=0;labelPosition=right;points=[];portConstraint=eastwest;strokeColor=inherit;" vertex="1" parent="ff9kux6z4qjQHwl3imrx-35">
          <mxGeometry y="150" width="180" height="8" as="geometry" />
        </mxCell>
        <mxCell id="ff9kux6z4qjQHwl3imrx-39" value="egresos(monto,dia,mes,a単o)&lt;br&gt;balance(egresos)" style="text;strokeColor=none;fillColor=none;align=left;verticalAlign=top;spacingLeft=4;spacingRight=4;overflow=hidden;rotatable=0;points=[[0,0.5],[1,0.5]];portConstraint=eastwest;whiteSpace=wrap;html=1;" vertex="1" parent="ff9kux6z4qjQHwl3imrx-35">
          <mxGeometry y="158" width="180" height="42" as="geometry" />
        </mxCell>
        <mxCell id="ff9kux6z4qjQHwl3imrx-40" style="edgeStyle=orthogonalEdgeStyle;rounded=0;orthogonalLoop=1;jettySize=auto;html=1;exitX=1;exitY=0.5;exitDx=0;exitDy=0;entryX=0.934;entryY=0.006;entryDx=0;entryDy=0;entryPerimeter=0;" edge="1" parent="1" source="ff9kux6z4qjQHwl3imrx-9" target="ff9kux6z4qjQHwl3imrx-35">
          <mxGeometry relative="1" as="geometry" />
        </mxCell>
        <mxCell id="ff9kux6z4qjQHwl3imrx-41" value="" style="edgeStyle=orthogonalEdgeStyle;rounded=0;orthogonalLoop=1;jettySize=auto;html=1;" edge="1" parent="1" source="ff9kux6z4qjQHwl3imrx-30" target="ff9kux6z4qjQHwl3imrx-39">
          <mxGeometry relative="1" as="geometry" />
        </mxCell>
        <mxCell id="ff9kux6z4qjQHwl3imrx-47" style="edgeStyle=orthogonalEdgeStyle;rounded=0;orthogonalLoop=1;jettySize=auto;html=1;exitX=0.5;exitY=0;exitDx=0;exitDy=0;entryX=1;entryY=0.5;entryDx=0;entryDy=0;" edge="1" parent="1" source="ff9kux6z4qjQHwl3imrx-42" target="ff9kux6z4qjQHwl3imrx-10">
          <mxGeometry relative="1" as="geometry" />
        </mxCell>
        <mxCell id="ff9kux6z4qjQHwl3imrx-42" value="Divisa" style="swimlane;fontStyle=1;align=center;verticalAlign=top;childLayout=stackLayout;horizontal=1;startSize=26;horizontalStack=0;resizeParent=1;resizeParentMax=0;resizeLast=0;collapsible=1;marginBottom=0;whiteSpace=wrap;html=1;" vertex="1" parent="1">
          <mxGeometry x="1080" y="450" width="180" height="102" as="geometry" />
        </mxCell>
        <mxCell id="ff9kux6z4qjQHwl3imrx-43" value="Divisa:Divisa" style="text;strokeColor=none;fillColor=none;align=left;verticalAlign=top;spacingLeft=4;spacingRight=4;overflow=hidden;rotatable=0;points=[[0,0.5],[1,0.5]];portConstraint=eastwest;whiteSpace=wrap;html=1;" vertex="1" parent="ff9kux6z4qjQHwl3imrx-42">
          <mxGeometry y="26" width="180" height="26" as="geometry" />
        </mxCell>
        <mxCell id="ff9kux6z4qjQHwl3imrx-45" value="" style="line;strokeWidth=1;fillColor=none;align=left;verticalAlign=middle;spacingTop=-1;spacingLeft=3;spacingRight=3;rotatable=0;labelPosition=right;points=[];portConstraint=eastwest;strokeColor=inherit;" vertex="1" parent="ff9kux6z4qjQHwl3imrx-42">
          <mxGeometry y="52" width="180" height="8" as="geometry" />
        </mxCell>
        <mxCell id="ff9kux6z4qjQHwl3imrx-46" value="divisa_elegida(COP,USD" style="text;strokeColor=none;fillColor=none;align=left;verticalAlign=top;spacingLeft=4;spacingRight=4;overflow=hidden;rotatable=0;points=[[0,0.5],[1,0.5]];portConstraint=eastwest;whiteSpace=wrap;html=1;" vertex="1" parent="ff9kux6z4qjQHwl3imrx-42">
          <mxGeometry y="60" width="180" height="42" as="geometry" />
        </mxCell>
        <mxCell id="ff9kux6z4qjQHwl3imrx-48" value="Categorizacion" style="swimlane;fontStyle=1;align=center;verticalAlign=top;childLayout=stackLayout;horizontal=1;startSize=26;horizontalStack=0;resizeParent=1;resizeParentMax=0;resizeLast=0;collapsible=1;marginBottom=0;whiteSpace=wrap;html=1;" vertex="1" parent="1">
          <mxGeometry x="677" y="740" width="200" height="330" as="geometry" />
        </mxCell>
        <mxCell id="ff9kux6z4qjQHwl3imrx-49" value="Tipo:str" style="text;strokeColor=none;fillColor=none;align=left;verticalAlign=top;spacingLeft=4;spacingRight=4;overflow=hidden;rotatable=0;points=[[0,0.5],[1,0.5]];portConstraint=eastwest;whiteSpace=wrap;html=1;" vertex="1" parent="ff9kux6z4qjQHwl3imrx-48">
          <mxGeometry y="26" width="200" height="26" as="geometry" />
        </mxCell>
        <mxCell id="ff9kux6z4qjQHwl3imrx-51" value="" style="line;strokeWidth=1;fillColor=none;align=left;verticalAlign=middle;spacingTop=-1;spacingLeft=3;spacingRight=3;rotatable=0;labelPosition=right;points=[];portConstraint=eastwest;strokeColor=inherit;" vertex="1" parent="ff9kux6z4qjQHwl3imrx-48">
          <mxGeometry y="52" width="200" height="8" as="geometry" />
        </mxCell>
        <mxCell id="ff9kux6z4qjQHwl3imrx-52" value="ingresar_descripcion(descripcion)&lt;br&gt;&lt;br&gt;seleccionar_tipo(tipo) -&amp;gt; str&lt;br&gt;&lt;br&gt;almacenar_ingreso(monto, fecha, descripcion, tipo)&lt;br&gt;&lt;br&gt;almacenar_egreso(monto, fecha, descripcion, tipo)&lt;br&gt;&lt;br&gt;categorizar_por_tipo() -&amp;gt; dict&lt;br&gt;&lt;br&gt;visualizar_por_tipo() -&amp;gt; dict&lt;br&gt;&lt;br&gt;&lt;span id=&quot;docs-internal-guid-4b76ff73-7fff-0c41-218a-8aeb5c77feae&quot;&gt;&lt;span id=&quot;docs-internal-guid-16b7569e-7fff-75d3-b839-fcb1196e1eaa&quot;&gt;visualizar_por_finalidad() -&amp;gt; dict&lt;br&gt;&lt;br&gt;&lt;span id=&quot;docs-internal-guid-44b79bd0-7fff-fcea-3471-0ba82fe5017a&quot;&gt;&lt;/span&gt;categorizar_por_finalidad() -&amp;gt; dict&lt;br&gt;&lt;/span&gt;&lt;/span&gt;" style="text;strokeColor=none;fillColor=none;align=left;verticalAlign=top;spacingLeft=4;spacingRight=4;overflow=hidden;rotatable=0;points=[[0,0.5],[1,0.5]];portConstraint=eastwest;whiteSpace=wrap;html=1;" vertex="1" parent="ff9kux6z4qjQHwl3imrx-48">
          <mxGeometry y="60" width="200" height="270" as="geometry" />
        </mxCell>
        <mxCell id="ff9kux6z4qjQHwl3imrx-59" style="edgeStyle=orthogonalEdgeStyle;rounded=0;orthogonalLoop=1;jettySize=auto;html=1;exitX=0;exitY=0.5;exitDx=0;exitDy=0;entryX=-0.005;entryY=0.759;entryDx=0;entryDy=0;entryPerimeter=0;" edge="1" parent="1" source="ff9kux6z4qjQHwl3imrx-28" target="ff9kux6z4qjQHwl3imrx-49">
          <mxGeometry relative="1" as="geometry" />
        </mxCell>
        <mxCell id="ff9kux6z4qjQHwl3imrx-60" style="edgeStyle=orthogonalEdgeStyle;rounded=0;orthogonalLoop=1;jettySize=auto;html=1;exitX=1;exitY=0.5;exitDx=0;exitDy=0;entryX=1.001;entryY=0.108;entryDx=0;entryDy=0;entryPerimeter=0;" edge="1" parent="1" source="ff9kux6z4qjQHwl3imrx-39" target="ff9kux6z4qjQHwl3imrx-52">
          <mxGeometry relative="1" as="geometry" />
        </mxCell>
        <mxCell id="ff9kux6z4qjQHwl3imrx-61" value="Visualizacion" style="swimlane;fontStyle=1;align=center;verticalAlign=top;childLayout=stackLayout;horizontal=1;startSize=26;horizontalStack=0;resizeParent=1;resizeParentMax=0;resizeLast=0;collapsible=1;marginBottom=0;whiteSpace=wrap;html=1;" vertex="1" parent="1">
          <mxGeometry x="1010" y="860" width="180" height="160" as="geometry" />
        </mxCell>
        <mxCell id="ff9kux6z4qjQHwl3imrx-62" value="Categoria:categorizacion" style="text;strokeColor=none;fillColor=none;align=left;verticalAlign=top;spacingLeft=4;spacingRight=4;overflow=hidden;rotatable=0;points=[[0,0.5],[1,0.5]];portConstraint=eastwest;whiteSpace=wrap;html=1;" vertex="1" parent="ff9kux6z4qjQHwl3imrx-61">
          <mxGeometry y="26" width="180" height="26" as="geometry" />
        </mxCell>
        <mxCell id="ff9kux6z4qjQHwl3imrx-63" value="Tipo:categorizacion" style="text;strokeColor=none;fillColor=none;align=left;verticalAlign=top;spacingLeft=4;spacingRight=4;overflow=hidden;rotatable=0;points=[[0,0.5],[1,0.5]];portConstraint=eastwest;whiteSpace=wrap;html=1;" vertex="1" parent="ff9kux6z4qjQHwl3imrx-61">
          <mxGeometry y="52" width="180" height="38" as="geometry" />
        </mxCell>
        <mxCell id="ff9kux6z4qjQHwl3imrx-64" value="" style="line;strokeWidth=1;fillColor=none;align=left;verticalAlign=middle;spacingTop=-1;spacingLeft=3;spacingRight=3;rotatable=0;labelPosition=right;points=[];portConstraint=eastwest;strokeColor=inherit;" vertex="1" parent="ff9kux6z4qjQHwl3imrx-61">
          <mxGeometry y="90" width="180" height="8" as="geometry" />
        </mxCell>
        <mxCell id="ff9kux6z4qjQHwl3imrx-65" value="visualizar_grafica()&lt;br&gt;visualizar_por_categoria() -&amp;gt; dict&lt;br&gt;&lt;span id=&quot;docs-internal-guid-aaff1a1a-7fff-fca5-81e6-de63523e725f&quot;&gt;&lt;/span&gt;" style="text;strokeColor=none;fillColor=none;align=left;verticalAlign=top;spacingLeft=4;spacingRight=4;overflow=hidden;rotatable=0;points=[[0,0.5],[1,0.5]];portConstraint=eastwest;whiteSpace=wrap;html=1;" vertex="1" parent="ff9kux6z4qjQHwl3imrx-61">
          <mxGeometry y="98" width="180" height="62" as="geometry" />
        </mxCell>
        <mxCell id="ff9kux6z4qjQHwl3imrx-66" style="edgeStyle=orthogonalEdgeStyle;rounded=0;orthogonalLoop=1;jettySize=auto;html=1;exitX=1;exitY=0.5;exitDx=0;exitDy=0;entryX=0;entryY=0.5;entryDx=0;entryDy=0;" edge="1" parent="1" source="ff9kux6z4qjQHwl3imrx-49" target="ff9kux6z4qjQHwl3imrx-63">
          <mxGeometry relative="1" as="geometry" />
        </mxCell>
        <mxCell id="ff9kux6z4qjQHwl3imrx-74" style="edgeStyle=orthogonalEdgeStyle;rounded=0;orthogonalLoop=1;jettySize=auto;html=1;exitX=0.5;exitY=0;exitDx=0;exitDy=0;entryX=0.5;entryY=0;entryDx=0;entryDy=0;" edge="1" parent="1" source="ff9kux6z4qjQHwl3imrx-67" target="ff9kux6z4qjQHwl3imrx-17">
          <mxGeometry relative="1" as="geometry" />
        </mxCell>
        <mxCell id="ff9kux6z4qjQHwl3imrx-67" value="Habitualidad" style="swimlane;fontStyle=1;align=center;verticalAlign=top;childLayout=stackLayout;horizontal=1;startSize=26;horizontalStack=0;resizeParent=1;resizeParentMax=0;resizeLast=0;collapsible=1;marginBottom=0;whiteSpace=wrap;html=1;" vertex="1" parent="1">
          <mxGeometry x="260" y="180" width="190" height="190" as="geometry" />
        </mxCell>
        <mxCell id="ff9kux6z4qjQHwl3imrx-68" value="perfil:perfil" style="text;strokeColor=none;fillColor=none;align=left;verticalAlign=top;spacingLeft=4;spacingRight=4;overflow=hidden;rotatable=0;points=[[0,0.5],[1,0.5]];portConstraint=eastwest;whiteSpace=wrap;html=1;" vertex="1" parent="ff9kux6z4qjQHwl3imrx-67">
          <mxGeometry y="26" width="190" height="26" as="geometry" />
        </mxCell>
        <mxCell id="ff9kux6z4qjQHwl3imrx-69" value="Fecha:habitualidad&lt;br&gt;" style="text;strokeColor=none;fillColor=none;align=left;verticalAlign=top;spacingLeft=4;spacingRight=4;overflow=hidden;rotatable=0;points=[[0,0.5],[1,0.5]];portConstraint=eastwest;whiteSpace=wrap;html=1;" vertex="1" parent="ff9kux6z4qjQHwl3imrx-67">
          <mxGeometry y="52" width="190" height="58" as="geometry" />
        </mxCell>
        <mxCell id="ff9kux6z4qjQHwl3imrx-70" value="" style="line;strokeWidth=1;fillColor=none;align=left;verticalAlign=middle;spacingTop=-1;spacingLeft=3;spacingRight=3;rotatable=0;labelPosition=right;points=[];portConstraint=eastwest;strokeColor=inherit;" vertex="1" parent="ff9kux6z4qjQHwl3imrx-67">
          <mxGeometry y="110" width="190" height="8" as="geometry" />
        </mxCell>
        <mxCell id="ff9kux6z4qjQHwl3imrx-71" value="ingresar_habitualidad(habitualidad) -&amp;gt; str&lt;br&gt;ingresar_cantidad(cantidad) -&amp;gt; float" style="text;strokeColor=none;fillColor=none;align=left;verticalAlign=top;spacingLeft=4;spacingRight=4;overflow=hidden;rotatable=0;points=[[0,0.5],[1,0.5]];portConstraint=eastwest;whiteSpace=wrap;html=1;" vertex="1" parent="ff9kux6z4qjQHwl3imrx-67">
          <mxGeometry y="118" width="190" height="72" as="geometry" />
        </mxCell>
      </root>
    </mxGraphModel>
  </diagram>
</mxfile>
